<svg width="52" height="52" viewBox="0 0 52 52" fill="none" xmlns="http://www.w3.org/2000/svg">
<path d="M45.955 34.4283C44.5766 37.688 42.4207 40.5605 39.6757 42.7945C36.9308 45.0285 33.6803 46.5561 30.2086 47.2437C26.7369 47.9313 23.1496 47.758 19.7603 46.7389C16.371 45.7198 13.283 43.886 10.7662 41.3978C8.24939 38.9095 6.38043 35.8426 5.32271 32.4652C4.26499 29.0878 4.05072 25.5027 4.69863 22.0234C5.34654 18.544 6.83691 15.2764 9.03943 12.5061C11.242 9.73577 14.0896 7.54719 17.3333 6.13167" stroke="white" stroke-width="2" stroke-linecap="round" stroke-linejoin="round"/>
<path d="M47.6667 26C47.6667 23.1547 47.1062 20.3372 46.0174 17.7085C44.9285 15.0798 43.3326 12.6913 41.3206 10.6794C39.3087 8.66742 36.9202 7.07146 34.2915 5.98261C31.6628 4.89376 28.8453 4.33333 26 4.33333V26H47.6667Z" stroke="white" stroke-width="2" stroke-linecap="round" stroke-linejoin="round"/>
</svg>
