<svg width="32" height="47" viewBox="0 0 32 47" fill="none" xmlns="http://www.w3.org/2000/svg">
<rect x="10" width="12" height="30" rx="5" fill="white"/>
<rect x="10" width="12" height="6" rx="1" fill="#573400"/>
<circle cx="16" cy="31" r="16" fill="white"/>
<path d="M32 31C32 33.1012 31.5861 35.1817 30.7821 37.1229C29.978 39.0641 28.7994 40.828 27.3137 42.3137C25.828 43.7994 24.0641 44.978 22.1229 45.7821C20.1817 46.5861 18.1011 47 16 47C13.8988 47 11.8183 46.5861 9.87706 45.7821C7.93585 44.978 6.17203 43.7994 4.68629 42.3137C3.20055 40.828 2.022 39.0641 1.21793 37.1229C0.413852 35.1817 -1.83688e-07 33.1011 0 31L16 31H32Z" fill="#1DCC00"/>
</svg>
