<svg width="52" height="52" viewBox="0 0 52 52" fill="none" xmlns="http://www.w3.org/2000/svg">
<path d="M30.3333 31.9801V7.58341C30.3333 6.14683 29.7626 4.76908 28.7468 3.75325C27.731 2.73743 26.3532 2.16675 24.9166 2.16675C23.48 2.16675 22.1023 2.73743 21.0865 3.75325C20.0706 4.76908 19.5 6.14683 19.5 7.58341V31.9801C17.7607 33.1422 16.4413 34.8328 15.7366 36.8022C15.0319 38.7717 14.9793 40.9155 15.5864 42.9172C16.1936 44.9189 17.4284 46.6722 19.1085 47.9183C20.7886 49.1643 22.8249 49.837 24.9166 49.837C27.0084 49.837 29.0446 49.1643 30.7247 47.9183C32.4048 46.6722 33.6396 44.9189 34.2468 42.9172C34.854 40.9155 34.8013 38.7717 34.0966 36.8022C33.3919 34.8328 32.0725 33.1422 30.3333 31.9801Z" stroke="white" stroke-width="4" stroke-linecap="round" stroke-linejoin="round"/>
</svg>