<svg width="52" height="52" viewBox="0 0 52 52" fill="none" xmlns="http://www.w3.org/2000/svg">
<path d="M26 47.6667C37.9662 47.6667 47.6666 37.9662 47.6666 26C47.6666 14.0338 37.9662 4.33333 26 4.33333C14.0338 4.33333 4.33331 14.0338 4.33331 26C4.33331 37.9662 14.0338 47.6667 26 47.6667Z" stroke="white" stroke-width="2" stroke-linecap="round" stroke-linejoin="round"/>
<path d="M26 39C33.1797 39 39 33.1797 39 26C39 18.8203 33.1797 13 26 13C18.8203 13 13 18.8203 13 26C13 33.1797 18.8203 39 26 39Z" stroke="white" stroke-width="2" stroke-linecap="round" stroke-linejoin="round"/>
<path d="M26 30.3333C28.3933 30.3333 30.3334 28.3932 30.3334 26C30.3334 23.6068 28.3933 21.6667 26 21.6667C23.6068 21.6667 21.6667 23.6068 21.6667 26C21.6667 28.3932 23.6068 30.3333 26 30.3333Z" stroke="white" stroke-width="2" stroke-linecap="round" stroke-linejoin="round"/>
</svg>
