<svg width="110" height="115" viewBox="0 0 110 115" fill="none" xmlns="http://www.w3.org/2000/svg">
<g filter="url(#filter0_d_412_599)">
<path d="M54.7764 106.057V94.6219M54.7764 94.6219L66.6397 85.9471M54.7764 94.6219V73.7236M54.7764 94.6219L42.8677 85.9471M54.7764 27.5894V56.1768M54.7764 73.7236V56.1768M54.7764 73.7236L44.0368 68.2032M54.7764 73.7236L65.0809 68.2032M54.7764 56.1768L68.1986 48.4878M54.7764 56.1768L42.8677 48.4878" stroke="#2DB363" stroke-width="6"/>
<path d="M81.8349 57.7826L83.1102 57.976L90.8708 59.689L85.9006 65.7052L84.6538 67.1257C80.4309 71.9367 73.8909 74.0754 67.6348 72.7215C67.4935 72.6909 67.3547 72.6466 67.2226 72.59L66.9458 72.4714L66.5769 73.3319L66.9458 72.4714C63.9763 71.1987 62.852 67.5723 64.5711 64.8397C68.5924 59.491 75.2227 56.7796 81.8349 57.7826Z" fill="#1B377E" stroke="#5ADAD2" stroke-width="2"/>
<path d="M43.5965 1.94201L47.3627 6.29882L48.0328 7.07398L48.7883 6.39653L53.9944 1.72819L59.1405 6.38745L59.8774 7.05464L60.5454 6.33153L64.6445 1.89419L65.2424 2.60525C71.7637 10.3604 71.5311 21.6998 64.7066 29.0503L63.8969 29.7738C58.4738 34.6193 50.1577 34.31 45.0112 29.0714L45.0112 29.0714L45.0045 29.0646C37.6745 21.7428 36.9994 10.1238 43.4398 2.13641L43.5965 1.94201Z" fill="#1B377E" stroke="#5ADAD2" stroke-width="2"/>
<path d="M90.0563 27.3966L91.9133 27.3482L103.941 27.8383L98.0852 38.1454L96.6763 40.4618C91.839 48.4147 83.0319 53.1323 73.7538 52.7925C73.5221 52.784 73.2902 52.7532 73.0651 52.7008L72.6487 52.6038C67.9102 51.5007 65.2987 46.3986 67.1546 41.8887C71.5654 33.2131 80.3563 27.6491 90.0563 27.3966Z" fill="#1B377E" stroke="#5ADAD2" stroke-width="2"/>
<path d="M27.7357 57.7276L26.469 57.9198L18.7706 59.619L23.7009 65.587L24.9395 66.998C29.1328 71.7754 35.6271 73.8991 41.8395 72.5547C41.9794 72.5244 42.1169 72.4806 42.2477 72.4245L42.5227 72.3066C45.4687 71.044 46.5842 67.4463 44.8788 64.7353C40.8856 59.4241 34.3017 56.7317 27.7357 57.7276Z" fill="#1B377E" stroke="#5ADAD2" stroke-width="2"/>
<path d="M69.2422 88.7081L68.848 89.6277L69.2422 88.7081L69.014 88.6102C66.6662 87.604 65.7759 84.7387 67.1308 82.577C70.4089 78.2213 75.8107 76.0136 81.1977 76.8307L82.2437 76.9894L88.3584 78.339L84.4438 83.0776L83.4172 84.2471C79.9769 88.1666 74.648 89.9095 69.5502 88.8063C69.4446 88.7834 69.3408 88.7503 69.2422 88.7081Z" fill="#1B377E" stroke="#5ADAD2" stroke-width="2"/>
<path d="M29.1201 76.7854L28.0812 76.943L22.0177 78.2813L25.8995 82.9801L26.9192 84.1418C30.3351 88.0336 35.6264 89.7642 40.6881 88.6688C40.7926 88.6461 40.8953 88.6134 40.9928 88.5716L41.2196 88.4744C43.548 87.4764 44.431 84.6348 43.0874 82.4909C39.8324 78.1661 34.4689 75.9741 29.1201 76.7854Z" fill="#1B377E" stroke="#5ADAD2" stroke-width="2"/>
<path d="M21.6343 27.308L19.7898 27.2599L7.85283 27.7463L13.6644 37.9757L15.0639 40.2767C19.8679 48.1749 28.6145 52.8601 37.8288 52.5226C38.0586 52.5142 38.2885 52.4836 38.5117 52.4317L38.9254 52.3354C43.6285 51.2405 46.2206 46.1766 44.3786 41.7003C39.998 33.0844 31.2676 27.5587 21.6343 27.308Z" fill="#1B377E" stroke="#5ADAD2" stroke-width="2"/>
</g>
<defs>
<filter id="filter0_d_412_599" x="-4" y="0.382141" width="114" height="117.618" filterUnits="userSpaceOnUse" color-interpolation-filters="sRGB">
<feFlood flood-opacity="0" result="BackgroundImageFix"/>
<feColorMatrix in="SourceAlpha" type="matrix" values="0 0 0 0 0 0 0 0 0 0 0 0 0 0 0 0 0 0 127 0" result="hardAlpha"/>
<feOffset dy="4"/>
<feGaussianBlur stdDeviation="2"/>
<feComposite in2="hardAlpha" operator="out"/>
<feColorMatrix type="matrix" values="0 0 0 0 0 0 0 0 0 0 0 0 0 0 0 0 0 0 0.25 0"/>
<feBlend mode="normal" in2="BackgroundImageFix" result="effect1_dropShadow_412_599"/>
<feBlend mode="normal" in="SourceGraphic" in2="effect1_dropShadow_412_599" result="shape"/>
</filter>
</defs>
</svg>
