<svg width="37" height="36" viewBox="0 0 37 36" fill="none" xmlns="http://www.w3.org/2000/svg">
<circle cx="29.5" cy="27.5" r="6.5" fill="#FBE41C" stroke="#25282B" stroke-width="2"/>
<path d="M1 18V32C1 33.66 5 35 10 35C15 35 19 33.66 19 32V18" fill="#FBE41C"/>
<path d="M1 18V32C1 33.66 5 35 10 35C15 35 19 33.66 19 32V18" stroke="#25282B" stroke-width="2" stroke-linecap="round" stroke-linejoin="round"/>
<path d="M1 4V18C1 19.66 5 21 10 21C15 21 19 19.66 19 18V4" fill="#FBE41C"/>
<path d="M1 4V18C1 19.66 5 21 10 21C15 21 19 19.66 19 18V4" stroke="#25282B" stroke-width="2" stroke-linecap="round" stroke-linejoin="round"/>
<path d="M10 7C14.9706 7 19 5.65685 19 4C19 2.34315 14.9706 1 10 1C5.02944 1 1 2.34315 1 4C1 5.65685 5.02944 7 10 7Z" fill="#FBE41C" stroke="#25282B" stroke-width="2" stroke-linecap="round" stroke-linejoin="round"/>
<path d="M19 11C19 12.66 15 14 10 14C5 14 1 12.66 1 11" stroke="#25282B" stroke-width="2" stroke-linecap="round" stroke-linejoin="round"/>
<path d="M19 25C19 26.66 15 28 10 28C5 28 1 26.66 1 25" stroke="#25282B" stroke-width="2" stroke-linecap="round" stroke-linejoin="round"/>
</svg>
