<svg width="134" height="139" viewBox="0 0 134 139" fill="none" xmlns="http://www.w3.org/2000/svg">
<g filter="url(#filter0_d_412_609)">
<path d="M67.1245 127.202V113.265V76.9504" stroke="#C7864A" stroke-width="4"/>
<path d="M46.953 77.1527C49.7555 74.3663 51.9947 72.2153 53.8412 70.6127C55.6967 69.0021 57.1037 67.9918 58.2426 67.4421C59.3559 66.9047 60.1374 66.8427 60.8064 67.0243C61.5195 67.2179 62.27 67.7304 63.2277 68.6826C65.107 70.5511 66.8889 73.202 66.6698 76.9487C66.4482 80.7367 64.1702 85.8818 57.33 92.6829C51.8829 98.099 47.3229 99.8346 42.129 101.186C41.1603 101.438 40.1649 101.677 39.1351 101.924C35.2239 102.864 30.8171 103.923 25.4972 106.255C28.7691 99.8327 31.3814 95.3376 34.3129 91.2947C37.6191 86.7352 41.3529 82.7209 46.953 77.1527Z" fill="#BE241B" stroke="#EE8539" stroke-width="2"/>
<path d="M74.4755 88.7738C71.6731 85.9873 69.5098 83.7608 67.8979 81.9249C66.2781 80.08 65.262 78.681 64.7091 77.5486C64.1687 76.4417 64.1063 75.6647 64.2889 74.9995C64.4836 74.2904 64.9991 73.5442 65.9567 72.592C67.836 70.7235 70.5021 68.9517 74.2703 69.1695C78.0801 69.3898 83.2547 71.6549 90.0949 78.456C95.542 83.8721 97.2876 88.406 98.6465 93.5703C98.8999 94.5334 99.1405 95.5232 99.3893 96.547C100.335 100.436 101.4 104.818 103.744 110.107C97.2857 106.854 92.7647 104.257 88.6986 101.342C84.113 98.0545 80.0756 94.3419 74.4755 88.7738Z" fill="#BE241B" stroke="#EE8539" stroke-width="2"/>
<path d="M87.4736 62.7116C84.6712 65.4981 82.4319 67.6491 80.5855 69.2517C78.7299 70.8623 77.3229 71.8726 76.184 72.4223C75.0707 72.9597 74.2893 73.0217 73.6202 72.8401C72.9071 72.6465 72.1566 72.134 71.199 71.1818C69.3197 69.3132 67.5377 66.6624 67.7568 62.9157C67.9784 59.1276 70.2564 53.9826 77.0966 47.1815C82.5438 41.7654 87.1037 40.0298 92.2976 38.6787C93.2663 38.4267 94.2617 38.1875 95.2915 37.94C99.2028 37.0002 103.61 35.9413 108.929 33.6098C105.658 40.0317 103.045 44.5268 100.114 48.5697C96.8076 53.1292 93.0737 57.1435 87.4736 62.7116Z" fill="#BE241B" stroke="#EE8539" stroke-width="2"/>
<path d="M61.2619 49.7876C64.0643 52.5741 66.2277 54.8006 67.8395 56.6365C69.4593 58.4814 70.4754 59.8804 71.0283 61.0128C71.5688 62.1197 71.6311 62.8967 71.4485 63.5619C71.2538 64.271 70.7383 65.0172 69.7807 65.9694C67.9014 67.8379 65.2353 69.6097 61.4671 69.3918C57.6573 69.1716 52.4827 66.9065 45.6426 60.1054C40.1954 54.6893 38.4498 50.1554 37.091 44.9911C36.8375 44.028 36.597 43.0382 36.3481 42.0144C35.4029 38.1254 34.3379 33.7438 31.9931 28.4543C38.4517 31.7075 42.9727 34.3049 47.0388 37.2197C51.6244 40.5069 55.6618 44.2195 61.2619 49.7876Z" fill="#BE241B" stroke="#EE8539" stroke-width="2"/>
<circle cx="12.8828" cy="12.8828" r="11.8828" transform="matrix(0.709128 -0.70508 0.709128 0.70508 49.1445 68.5822)" fill="#F6E37E" stroke="#EE8539" stroke-width="2"/>
</g>
<defs>
<filter id="filter0_d_412_609" x="-4" y="0" width="142" height="147" filterUnits="userSpaceOnUse" color-interpolation-filters="sRGB">
<feFlood flood-opacity="0" result="BackgroundImageFix"/>
<feColorMatrix in="SourceAlpha" type="matrix" values="0 0 0 0 0 0 0 0 0 0 0 0 0 0 0 0 0 0 127 0" result="hardAlpha"/>
<feOffset dy="4"/>
<feGaussianBlur stdDeviation="2"/>
<feComposite in2="hardAlpha" operator="out"/>
<feColorMatrix type="matrix" values="0 0 0 0 0 0 0 0 0 0 0 0 0 0 0 0 0 0 0.25 0"/>
<feBlend mode="normal" in2="BackgroundImageFix" result="effect1_dropShadow_412_609"/>
<feBlend mode="normal" in="SourceGraphic" in2="effect1_dropShadow_412_609" result="shape"/>
</filter>
</defs>
</svg>
