<svg width="133" height="148" viewBox="0 0 133 148" fill="none" xmlns="http://www.w3.org/2000/svg">
<g filter="url(#filter0_d_412_582)">
<path d="M66.6237 140V114.08V77.504" stroke="#1B7E43" stroke-width="4"/>
<path d="M67.4044 38.382C69.3123 45.5932 70.0302 52.3519 69.6739 57.4337C69.4954 59.9797 69.0511 62.0472 68.3927 63.5276C67.7299 65.0181 66.9232 65.7644 66.092 65.99C65.2608 66.2155 64.1938 65.9776 62.8839 65.0224C61.5828 64.0738 60.1772 62.5083 58.7656 60.3937C55.9481 56.1732 53.2328 49.9564 51.3248 42.7452C49.4168 35.534 48.699 28.7753 49.0552 23.6935C49.2337 21.1474 49.6781 19.08 50.3365 17.5996C50.9993 16.1091 51.8059 15.3628 52.6371 15.1372C53.4683 14.9117 54.5354 15.1496 55.8453 16.1047C57.1463 17.0534 58.5519 18.6189 59.9636 20.7335C62.7811 24.954 65.4964 31.1707 67.4044 38.382Z" fill="white" stroke="#546F39" stroke-width="2"/>
<path d="M52.2225 43.2528C57.4524 48.5297 61.4269 54.0143 63.639 58.589C64.7473 60.881 65.3879 62.8928 65.5519 64.5045C65.7171 66.127 65.3889 67.1797 64.7794 67.7947C64.1699 68.4097 63.1265 68.7408 61.5186 68.5742C59.9212 68.4087 57.9272 67.7624 55.6556 66.6442C51.1216 64.4123 45.6858 60.4022 40.4558 55.1253C35.2259 49.8484 31.2514 44.3638 29.0393 39.7891C27.931 37.4971 27.2904 35.4853 27.1264 33.8736C26.9612 32.2512 27.2894 31.1984 27.8989 30.5834C28.5084 29.9684 29.5518 29.6373 31.1597 29.8039C32.7571 29.9694 34.751 30.6157 37.0227 31.7339C41.5566 33.9659 46.9925 37.9759 52.2225 43.2528Z" fill="white" stroke="#546F39" stroke-width="2"/>
<path d="M40.3194 54.2678C47.4651 56.1925 53.6248 58.9314 57.8062 61.7731C59.9011 63.1968 61.4517 64.6142 62.3915 65.9262C63.3369 67.2461 63.576 68.3258 63.3505 69.1717C63.1251 70.0176 62.381 70.8325 60.9058 71.5004C59.4394 72.1643 57.3915 72.6125 54.8692 72.7925C49.8346 73.1519 43.1378 72.428 35.9922 70.5034C28.8465 68.5787 22.6868 65.8397 18.5054 62.9981C16.4105 61.5744 14.8599 60.1569 13.9201 58.8449C12.9747 57.5251 12.7356 56.4453 12.9611 55.5994C13.1865 54.7536 13.9306 53.9387 15.4058 53.2708C16.8722 52.6068 18.9201 52.1587 21.4424 51.9786C26.477 51.6192 33.1738 52.3431 40.3194 54.2678Z" fill="white" stroke="#546F39" stroke-width="2"/>
<path d="M82.7387 43.6553C80.814 50.8764 78.0903 57.1059 75.2725 61.3391C73.8607 63.46 72.457 65.0315 71.1598 65.9855C69.8532 66.9465 68.7936 67.1866 67.9723 66.9654C67.151 66.7442 66.3528 66.0037 65.6991 64.5147C65.0502 63.0366 64.6162 60.9701 64.4484 58.4237C64.1135 53.3414 64.8531 46.5775 66.7778 39.3564C68.7025 32.1354 71.4261 25.9058 74.2439 21.6727C75.6558 19.5517 77.0594 17.9802 78.3566 17.0262C79.6633 16.0653 80.7229 15.8252 81.5441 16.0464C82.3654 16.2676 83.1637 17.0081 83.8173 18.497C84.4662 19.9752 84.9003 22.0417 85.0681 24.5881C85.4029 29.6703 84.6634 36.4343 82.7387 43.6553Z" fill="white" stroke="#546F39" stroke-width="2"/>
<path d="M94.1113 54.7395C88.8711 60.0267 83.4304 64.0504 78.8966 66.2957C76.6251 67.4206 74.6327 68.0734 73.038 68.2448C71.4327 68.4173 70.3932 68.0909 69.7877 67.48C69.1823 66.8692 68.8588 65.8204 69.0297 64.2007C69.1996 62.5916 69.8465 60.5814 70.9615 58.2895C73.1868 53.715 77.1745 48.2254 82.4147 42.9381C87.6549 37.6509 93.0956 33.6273 97.6294 31.382C99.9009 30.257 101.893 29.6043 103.488 29.4329C105.093 29.2603 106.133 29.5867 106.738 30.1976C107.344 30.8085 107.667 31.8573 107.496 33.477C107.326 35.086 106.679 37.0963 105.565 39.3882C103.339 43.9626 99.3515 49.4523 94.1113 54.7395Z" fill="white" stroke="#546F39" stroke-width="2"/>
<path d="M81.6753 92.1198C79.7673 84.9086 77.052 78.6918 74.2345 74.4713C72.8229 72.3567 71.4173 70.7913 70.1163 69.8426C68.8063 68.8874 67.7393 68.6495 66.9081 68.8751C66.0769 69.1006 65.2703 69.8469 64.6074 71.3374C63.9491 72.8178 63.5047 74.8853 63.3262 77.4313C62.9699 82.5131 63.6878 89.2719 65.5958 96.4831C67.5037 103.694 70.219 109.911 73.0365 114.132C74.4482 116.246 75.8538 117.812 77.1548 118.76C78.4648 119.715 79.5318 119.953 80.363 119.728C81.1942 119.502 82.0008 118.756 82.6637 117.265C83.322 115.785 83.7664 113.718 83.9449 111.172C84.3011 106.09 83.5833 99.331 81.6753 92.1198Z" fill="white" stroke="#546F39" stroke-width="2"/>
<path d="M66.1094 95.7383C68.0452 88.5609 68.7957 81.84 68.4696 76.792C68.3062 74.2628 67.876 72.2111 67.2302 70.7443C66.5798 69.2672 65.7835 68.5326 64.9622 68.3141C64.141 68.0955 63.0816 68.3363 61.7749 69.2927C60.4773 70.2423 59.0721 71.8056 57.6576 73.9149C54.8345 78.1249 52.1019 84.3184 50.166 91.4958C48.2302 98.6732 47.4797 105.394 47.8058 110.442C47.9692 112.971 48.3994 115.023 49.0452 116.49C49.6956 117.967 50.4919 118.701 51.3132 118.92C52.1344 119.139 53.1938 118.898 54.5005 117.941C55.7981 116.992 57.2033 115.428 58.6178 113.319C61.4409 109.109 64.1735 102.916 66.1094 95.7383Z" fill="white" stroke="#546F39" stroke-width="2"/>
<path d="M50.3618 92.2363C55.6087 86.9738 59.604 81.5124 61.8361 76.9633C62.9544 74.6841 63.6044 72.6856 63.7769 71.0869C63.9505 69.4772 63.6285 68.4382 63.027 67.8349C62.4255 67.2316 61.3895 66.9087 59.7845 67.083C58.1905 67.256 56.198 67.908 53.9255 69.0298C49.3899 71.2686 43.9447 75.276 38.6979 80.5385C33.451 85.8011 29.4557 91.2625 27.2236 95.8116C26.1053 98.0908 25.4553 100.089 25.2828 101.688C25.1092 103.298 25.4312 104.337 26.0327 104.94C26.6342 105.543 27.6702 105.866 29.2752 105.692C30.8692 105.519 32.8617 104.867 35.1342 103.745C39.6698 101.506 45.115 97.4989 50.3618 92.2363Z" fill="white" stroke="#546F39" stroke-width="2"/>
<path d="M92.4461 80.0266C87.228 74.7932 81.8023 70.819 77.2751 68.6098C75.007 67.5029 73.0158 66.8645 71.4203 66.703C69.8145 66.5404 68.771 66.8708 68.1602 67.4834C67.5495 68.096 67.2201 69.1426 67.3823 70.7532C67.5435 72.3535 68.18 74.3505 69.2837 76.6254C71.4866 81.1659 75.4493 86.6077 80.6674 91.8411C85.8854 97.0745 91.3112 101.049 95.8384 103.258C98.1065 104.365 100.098 105.003 101.693 105.165C103.299 105.327 104.342 104.997 104.953 104.384C105.564 103.772 105.893 102.725 105.731 101.115C105.57 99.5143 104.933 97.5172 103.83 95.2424C101.627 90.7018 97.6642 85.26 92.4461 80.0266Z" fill="white" stroke="#546F39" stroke-width="2"/>
<path d="M96.8121 64.7761C89.6728 62.8762 82.9802 62.1686 77.9473 62.5345C75.4257 62.7178 73.3781 63.1667 71.9115 63.8289C70.4358 64.4952 69.693 65.3052 69.4672 66.1426C69.2414 66.9799 69.477 68.0503 70.4198 69.3602C71.3567 70.662 72.9042 72.0676 74.9957 73.4786C79.1705 76.2948 85.3229 79.0055 92.4621 80.9054C99.6014 82.8053 106.294 83.5129 111.327 83.147C113.849 82.9636 115.896 82.5147 117.363 81.8526C118.838 81.1863 119.581 80.3763 119.807 79.5389C120.033 78.7015 119.797 77.6311 118.855 76.3212C117.918 75.0195 116.37 73.6139 114.279 72.2029C110.104 69.3867 103.951 66.6759 96.8121 64.7761Z" fill="white" stroke="#546F39" stroke-width="2"/>
<path d="M38.2713 66.7477C45.4267 64.806 52.1286 64.06 57.1637 64.3977C59.6863 64.5669 61.7332 65.0046 63.1974 65.6589C64.671 66.3175 65.4094 67.1238 65.6305 67.9597C65.8517 68.7955 65.6104 69.8677 64.6593 71.1841C63.7144 72.4922 62.1578 73.9077 60.0566 75.3316C55.8629 78.1735 49.6905 80.921 42.5351 82.8626C35.3797 84.8043 28.6778 85.5503 23.6428 85.2126C21.1201 85.0434 19.0732 84.6057 17.609 83.9514C16.1354 83.2928 15.3971 82.4865 15.1759 81.6507C14.9548 80.8148 15.1961 79.7427 16.1471 78.4262C17.0921 77.1181 18.6487 75.7026 20.7498 74.2787C24.9436 71.4368 31.1159 68.6893 38.2713 66.7477Z" fill="white" stroke="#546F39" stroke-width="2"/>
<path d="M90.6221 52.5944C97.7775 50.6528 104.479 49.9068 109.514 50.2445C112.037 50.4137 114.084 50.8513 115.548 51.5057C117.022 52.1642 117.76 52.9706 117.981 53.8064C118.203 54.6422 117.961 55.7144 117.01 57.0309C116.065 58.339 114.509 59.7545 112.407 61.1783C108.214 64.0203 102.041 66.7678 94.886 68.7094C87.7306 70.651 81.0287 71.397 75.9936 71.0593C73.471 70.8901 71.424 70.4525 69.9598 69.7981C68.4862 69.1396 67.7479 68.3332 67.5267 67.4974C67.3056 66.6616 67.5469 65.5894 68.4979 64.2729C69.4429 62.9648 70.9995 61.5493 73.1006 60.1255C77.2944 57.2835 83.4667 54.536 90.6221 52.5944Z" fill="white" stroke="#546F39" stroke-width="2"/>
<path d="M77.1138 66.9578C77.1138 72.8856 72.3534 77.6758 66.5 77.6758C60.6466 77.6758 55.8862 72.8856 55.8862 66.9578C55.8862 61.0299 60.6466 56.2397 66.5 56.2397C72.3534 56.2397 77.1138 61.0299 77.1138 66.9578Z" fill="#F6E37E" stroke="#1B7E43" stroke-width="2"/>
</g>
<defs>
<filter id="filter0_d_412_582" x="-4" y="0" width="141" height="148" filterUnits="userSpaceOnUse" color-interpolation-filters="sRGB">
<feFlood flood-opacity="0" result="BackgroundImageFix"/>
<feColorMatrix in="SourceAlpha" type="matrix" values="0 0 0 0 0 0 0 0 0 0 0 0 0 0 0 0 0 0 127 0" result="hardAlpha"/>
<feOffset dy="4"/>
<feGaussianBlur stdDeviation="2"/>
<feComposite in2="hardAlpha" operator="out"/>
<feColorMatrix type="matrix" values="0 0 0 0 0 0 0 0 0 0 0 0 0 0 0 0 0 0 0.25 0"/>
<feBlend mode="normal" in2="BackgroundImageFix" result="effect1_dropShadow_412_582"/>
<feBlend mode="normal" in="SourceGraphic" in2="effect1_dropShadow_412_582" result="shape"/>
</filter>
</defs>
</svg>
