<svg width="64" height="64" viewBox="0 0 64 64" fill="none" xmlns="http://www.w3.org/2000/svg">
<path d="M29.3334 10.6666H10.6667C9.25222 10.6666 7.89567 11.2285 6.89547 12.2287C5.89528 13.2289 5.33337 14.5855 5.33337 16V53.3333C5.33337 54.7478 5.89528 56.1043 6.89547 57.1045C7.89567 58.1047 9.25222 58.6666 10.6667 58.6666H48C49.4145 58.6666 50.7711 58.1047 51.7713 57.1045C52.7715 56.1043 53.3334 54.7478 53.3334 53.3333V34.6666" stroke="white" stroke-width="4" stroke-linecap="round" stroke-linejoin="round"/>
<path d="M49.3334 6.66662C50.3942 5.60575 51.8331 5.00977 53.3334 5.00977C54.8337 5.00977 56.2725 5.60575 57.3334 6.66662C58.3942 7.72749 58.9902 9.16633 58.9902 10.6666C58.9902 12.1669 58.3942 13.6058 57.3334 14.6666L32 40L21.3334 42.6666L24 32L49.3334 6.66662Z" stroke="white" stroke-width="4" stroke-linecap="round" stroke-linejoin="round"/>
</svg>
