<svg width="188" height="328" viewBox="0 0 188 328" fill="none" xmlns="http://www.w3.org/2000/svg">
<rect x="4" width="180" height="320" fill="#F5F5F5"/>
<g filter="url(#filter0_d_435_394)">
<path d="M94.0491 179.211V146.032V99.2114" stroke="#1B7E43" stroke-width="4"/>
<path d="M95.2986 49.0778C97.7794 58.3362 98.7263 67.0224 98.2774 73.5656C98.0526 76.8424 97.4814 79.5242 96.6187 81.4593C95.7516 83.4042 94.6626 84.4476 93.4733 84.7663C92.284 85.0849 90.8192 84.7258 89.0959 83.475C87.3811 82.2305 85.5456 80.1936 83.7125 77.4683C80.0522 72.0262 76.5291 64.0302 74.0483 54.7718C71.5675 45.5134 70.6206 36.8271 71.0695 30.2839C71.2943 27.0072 71.8655 24.3254 72.7282 22.3902C73.5953 20.4454 74.6843 19.402 75.8736 19.0833C77.0629 18.7646 78.5277 19.1237 80.2511 20.3745C81.9658 21.619 83.8013 23.6559 85.6344 26.3813C89.2947 31.8234 92.8179 39.8194 95.2986 49.0778Z" fill="white" stroke="#546F39" stroke-width="2"/>
<path d="M75.6284 55.1879C82.406 61.9655 87.5692 69.0146 90.452 74.9056C91.8957 77.8557 92.7419 80.4638 92.9624 82.5711C93.1839 84.6889 92.7625 86.1371 91.8919 87.0077C91.0213 87.8783 89.5731 88.2997 87.4553 88.0782C85.348 87.8577 82.7399 87.0115 79.7898 85.5678C73.8988 82.685 66.8497 77.5218 60.0721 70.7442C53.2944 63.9666 48.1313 56.9175 45.2484 51.0265C43.8048 48.0763 42.9585 45.4682 42.7381 43.361C42.5166 41.2431 42.938 39.795 43.8086 38.9244C44.6792 38.0538 46.1273 37.6324 48.2452 37.8539C50.3524 38.0743 52.9605 38.9206 55.9107 40.3642C61.8017 43.2471 68.8508 48.4102 75.6284 55.1879Z" fill="white" stroke="#546F39" stroke-width="2"/>
<path d="M60.1278 69.2334C69.3862 71.7142 77.3822 75.2373 82.8243 78.8977C85.5496 80.7307 87.5866 82.5663 88.8311 84.281C90.0818 86.0044 90.4409 87.4692 90.1223 88.6585C89.8036 89.8477 88.7602 90.9368 86.8153 91.8038C84.8802 92.6666 82.1984 93.2377 78.9216 93.4626C72.3784 93.9114 63.6922 92.9646 54.4338 90.4838C45.1754 88.003 37.1794 84.4799 31.7373 80.8195C29.0119 78.9865 26.975 77.1509 25.7305 75.4362C24.4797 73.7129 24.1206 72.248 24.4393 71.0588C24.758 69.8695 25.8014 68.7805 27.7463 67.9134C29.6814 67.0507 32.3632 66.4795 35.6399 66.2547C42.1831 65.8058 50.8694 66.7526 60.1278 69.2334Z" fill="white" stroke="#546F39" stroke-width="2"/>
<path d="M115.181 55.9779C112.7 65.2363 109.177 73.2323 105.516 78.6744C103.683 81.3997 101.848 83.4366 100.133 84.6812C98.4096 85.9319 96.9448 86.291 95.7555 85.9724C94.5663 85.6537 93.4772 84.6103 92.6102 82.6654C91.7474 80.7303 91.1763 78.0485 90.9515 74.7717C90.5026 68.2285 91.4494 59.5423 93.9302 50.2839C96.411 41.0255 99.9341 33.0295 103.594 27.5874C105.428 24.862 107.263 22.8251 108.978 21.5806C110.701 20.3298 112.166 19.9707 113.355 20.2894C114.545 20.6081 115.634 21.6515 116.501 23.5964C117.363 25.5315 117.935 28.2133 118.159 31.49C118.608 38.0332 117.661 46.7195 115.181 55.9779Z" fill="white" stroke="#546F39" stroke-width="2"/>
<path d="M129.776 70.2959C122.998 77.0736 115.949 82.2367 110.058 85.1196C107.108 86.5632 104.5 87.4095 102.393 87.6299C100.275 87.8514 98.8268 87.43 97.9562 86.5594C97.0856 85.6888 96.6642 84.2407 96.8857 82.1228C97.1061 80.0156 97.9524 77.4075 99.3961 74.4573C102.279 68.5663 107.442 61.5172 114.22 54.7396C120.997 47.962 128.046 42.7988 133.937 39.916C136.888 38.4723 139.496 37.6261 141.603 37.4056C143.721 37.1841 145.169 37.6055 146.039 38.4761C146.91 39.3467 147.332 40.7949 147.11 42.9127C146.89 45.02 146.043 47.6281 144.6 50.5782C141.717 56.4692 136.554 63.5183 129.776 70.2959Z" fill="white" stroke="#546F39" stroke-width="2"/>
<path d="M113.731 117.867C111.25 108.608 107.727 100.612 104.066 95.17C102.233 92.4447 100.398 90.4078 98.683 89.1633C96.9596 87.9125 95.4948 87.5534 94.3055 87.8721C93.1163 88.1907 92.0272 89.2341 91.1601 91.179C90.2974 93.1141 89.7262 95.7959 89.5014 99.0727C89.0525 105.616 89.9994 114.302 92.4802 123.561C94.961 132.819 98.4841 140.815 102.144 146.257C103.978 148.982 105.813 151.019 107.528 152.264C109.251 153.515 110.716 153.874 111.905 153.555C113.094 153.236 114.184 152.193 115.051 150.248C115.913 148.313 116.485 145.631 116.709 142.354C117.158 135.811 116.211 127.125 113.731 117.867Z" fill="white" stroke="#546F39" stroke-width="2"/>
<path d="M93.7027 122.648C96.198 113.445 97.1592 104.814 96.7219 98.3144C96.5028 95.0596 95.9366 92.3967 95.078 90.4762C94.2151 88.5464 93.1287 87.5113 91.9398 87.1966C90.7509 86.8818 89.2863 87.2415 87.5626 88.4865C85.8472 89.7255 84.0095 91.7519 82.1729 94.4624C78.5054 99.8751 74.9705 107.825 72.4752 117.027C69.9798 126.23 69.0186 134.861 69.456 141.361C69.675 144.615 70.2412 147.278 71.0999 149.199C71.9627 151.129 73.0491 152.164 74.238 152.478C75.4269 152.793 76.8915 152.434 78.6153 151.189C80.3306 149.95 82.1684 147.923 84.005 145.213C87.6724 139.8 91.2073 131.85 93.7027 122.648Z" fill="white" stroke="#546F39" stroke-width="2"/>
<path d="M73.271 118.294C80.0572 111.548 85.2302 104.536 88.1219 98.6772C89.57 95.7434 90.4203 93.1506 90.6442 91.0568C90.8693 88.952 90.4502 87.5164 89.5841 86.6555C88.7179 85.7946 87.2737 85.3779 85.1563 85.6017C83.05 85.8243 80.4417 86.6695 77.4903 88.1091C71.5969 90.9836 64.5421 96.1258 57.7558 102.872C50.9696 109.618 45.7966 116.631 42.9049 122.489C41.4567 125.423 40.6065 128.015 40.3825 130.109C40.1575 132.214 40.5766 133.65 41.4427 134.511C42.3088 135.371 43.753 135.788 45.8705 135.564C47.9768 135.342 50.5851 134.497 53.5365 133.057C59.4298 130.182 66.4847 125.04 73.271 118.294Z" fill="white" stroke="#546F39" stroke-width="2"/>
<path d="M127.581 102.262C120.818 95.5399 113.782 90.4227 107.9 87.5689C104.954 86.1398 102.349 85.3037 100.244 85.0884C98.129 84.8721 96.6807 85.2929 95.8085 86.1599C94.9363 87.027 94.513 88.4666 94.7306 90.5693C94.9472 92.6618 95.7883 95.251 97.226 98.1793C100.097 104.027 105.245 111.021 112.007 117.743C118.77 124.465 125.806 129.582 131.688 132.436C134.634 133.865 137.239 134.701 139.344 134.916C141.459 135.133 142.907 134.712 143.78 133.845C144.652 132.978 145.075 131.538 144.858 129.435C144.641 127.343 143.8 124.754 142.362 121.826C139.491 115.978 134.343 108.984 127.581 102.262Z" fill="white" stroke="#546F39" stroke-width="2"/>
<path d="M133.093 82.6852C123.843 80.2362 115.162 79.3103 108.621 79.7676C105.345 79.9966 102.664 80.5687 100.729 81.4291C98.7829 82.2941 97.7405 83.377 97.4209 84.5556C97.1013 85.7343 97.4561 87.1871 98.7034 88.8974C99.9442 90.5987 101.977 92.419 104.698 94.2357C110.131 97.8633 118.118 101.35 127.368 103.799C136.618 106.248 145.299 107.174 151.84 106.717C155.115 106.488 157.797 105.916 159.732 105.055C161.678 104.19 162.72 103.107 163.04 101.929C163.36 100.75 163.005 99.2972 161.757 97.5869C160.517 95.8855 158.484 94.0653 155.763 92.2486C150.329 88.621 142.343 85.1342 133.093 82.6852Z" fill="white" stroke="#546F39" stroke-width="2"/>
<path d="M57.3366 85.1315C66.595 82.6507 75.2812 81.7039 81.8244 82.1528C85.1012 82.3776 87.783 82.9488 89.7181 83.8115C91.663 84.6786 92.7064 85.7676 93.025 86.9569C93.3437 88.1461 92.9846 89.611 91.7338 91.3343C90.4893 93.049 88.4524 94.8846 85.7271 96.7177C80.2849 100.378 72.289 103.901 63.0306 106.382C53.7722 108.863 45.0859 109.81 38.5427 109.361C35.266 109.136 32.5842 108.565 30.649 107.702C28.7042 106.835 27.6608 105.746 27.3421 104.557C27.0234 103.367 27.3825 101.902 28.6333 100.179C29.8778 98.4644 31.9147 96.6288 34.6401 94.7958C40.0822 91.1354 48.0781 87.6123 57.3366 85.1315Z" fill="white" stroke="#546F39" stroke-width="2"/>
<path d="M124.951 67.0142C134.21 64.5334 142.896 63.5866 149.439 64.0355C152.716 64.2603 155.398 64.8315 157.333 65.6942C159.278 66.5613 160.321 67.6503 160.64 68.8396C160.959 70.0288 160.599 71.4937 159.349 73.217C158.104 74.9317 156.067 76.7673 153.342 78.6003C147.9 82.2607 139.904 85.7838 130.645 88.2646C121.387 90.7454 112.701 91.6922 106.158 91.2433C102.881 91.0185 100.199 90.4474 98.2638 89.5846C96.319 88.7176 95.2756 87.6285 94.9569 86.4393C94.6382 85.25 94.9973 83.7852 96.2481 82.0618C97.4926 80.3471 99.5295 78.5115 102.255 76.6785C107.697 73.0181 115.693 69.495 124.951 67.0142Z" fill="white" stroke="#546F39" stroke-width="2"/>
<circle cx="93.8894" cy="85.7114" r="14" fill="#F6E37E" stroke="#1B7E43" stroke-width="2"/>
</g>
<g filter="url(#filter1_d_435_394)">
<path d="M14 200H174L150 320H38L14 200Z" fill="#C7864A"/>
<rect x="4" y="167" width="180" height="40" fill="#9E673A"/>
</g>
<defs>
<filter id="filter0_d_435_394" x="4" y="0" width="179.779" height="187.211" filterUnits="userSpaceOnUse" color-interpolation-filters="sRGB">
<feFlood flood-opacity="0" result="BackgroundImageFix"/>
<feColorMatrix in="SourceAlpha" type="matrix" values="0 0 0 0 0 0 0 0 0 0 0 0 0 0 0 0 0 0 127 0" result="hardAlpha"/>
<feOffset dy="4"/>
<feGaussianBlur stdDeviation="2"/>
<feComposite in2="hardAlpha" operator="out"/>
<feColorMatrix type="matrix" values="0 0 0 0 0 0 0 0 0 0 0 0 0 0 0 0 0 0 0.25 0"/>
<feBlend mode="normal" in2="BackgroundImageFix" result="effect1_dropShadow_435_394"/>
<feBlend mode="normal" in="SourceGraphic" in2="effect1_dropShadow_435_394" result="shape"/>
</filter>
<filter id="filter1_d_435_394" x="0" y="167" width="188" height="161" filterUnits="userSpaceOnUse" color-interpolation-filters="sRGB">
<feFlood flood-opacity="0" result="BackgroundImageFix"/>
<feColorMatrix in="SourceAlpha" type="matrix" values="0 0 0 0 0 0 0 0 0 0 0 0 0 0 0 0 0 0 127 0" result="hardAlpha"/>
<feOffset dy="4"/>
<feGaussianBlur stdDeviation="2"/>
<feComposite in2="hardAlpha" operator="out"/>
<feColorMatrix type="matrix" values="0 0 0 0 0 0 0 0 0 0 0 0 0 0 0 0 0 0 0.25 0"/>
<feBlend mode="normal" in2="BackgroundImageFix" result="effect1_dropShadow_435_394"/>
<feBlend mode="normal" in="SourceGraphic" in2="effect1_dropShadow_435_394" result="shape"/>
</filter>
</defs>
</svg>
